<svg xmlns="http://www.w3.org/2000/svg" width="1024" height="1024" viewBox="0 0 1024 1024">
  <defs>
    <linearGradient id="bg" x1="0.15" y1="0" x2="0.85" y2="1">
      <stop offset="0" stop-color="#4a3a99"/>
      <stop offset="0.55" stop-color="#241d4d"/>
      <stop offset="1" stop-color="#121120"/>
    </linearGradient>
    <linearGradient id="arc" gradientUnits="userSpaceOnUse" x1="300" y1="720" x2="740" y2="330">
      <stop offset="0" stop-color="#30d158"/>
      <stop offset="0.5" stop-color="#ffd166"/>
      <stop offset="1" stop-color="#ff9f0a"/>
    </linearGradient>
    <linearGradient id="flame" x1="0" y1="1" x2="0" y2="0">
      <stop offset="0" stop-color="#ff453a"/>
      <stop offset="0.6" stop-color="#ff9f0a"/>
      <stop offset="1" stop-color="#ffd166"/>
    </linearGradient>
    <linearGradient id="core" x1="0" y1="1" x2="0" y2="0">
      <stop offset="0" stop-color="#ffb340"/>
      <stop offset="1" stop-color="#fff3c4"/>
    </linearGradient>
    <linearGradient id="sheen" x1="0" y1="0" x2="0" y2="1">
      <stop offset="0" stop-color="#ffffff" stop-opacity="0.34"/>
      <stop offset="1" stop-color="#ffffff" stop-opacity="0"/>
    </linearGradient>
    <radialGradient id="tip">
      <stop offset="0" stop-color="#fff6d6"/>
      <stop offset="0.35" stop-color="#ffb340"/>
      <stop offset="1" stop-color="#ff453a" stop-opacity="0"/>
    </radialGradient>
    <radialGradient id="glow" cx="0.5" cy="0.62" r="0.5">
      <stop offset="0" stop-color="#ff9f0a" stop-opacity="0.38"/>
      <stop offset="1" stop-color="#ff9f0a" stop-opacity="0"/>
    </radialGradient>
    <filter id="blur" x="-30%" y="-30%" width="160%" height="160%"><feGaussianBlur stdDeviation="22"/></filter>
    <filter id="shadow" x="-20%" y="-20%" width="140%" height="150%"><feGaussianBlur stdDeviation="26"/></filter>
    <clipPath id="body"><rect x="100" y="100" width="824" height="824" rx="190"/></clipPath>
  </defs>

  <rect x="100" y="124" width="824" height="824" rx="190" fill="#000" opacity="0.45" filter="url(#shadow)"/>
  <rect x="100" y="100" width="824" height="824" rx="190" fill="url(#bg)"/>

  <g clip-path="url(#body)">
    <rect x="100" y="100" width="824" height="824" fill="url(#glow)"/>
    <path d="M345.8 678.2 A235 235 0 1 1 678.2 678.2" fill="none" stroke="#ffffff" stroke-opacity="0.12" stroke-width="64" stroke-linecap="round"/>
    <path d="M345.8 678.2 A235 235 0 1 1 714.3 392.4" fill="none" stroke="#ff9f0a" stroke-opacity="0.5" stroke-width="64" stroke-linecap="round" filter="url(#blur)"/>
    <path d="M345.8 678.2 A235 235 0 1 1 714.3 392.4" fill="none" stroke="url(#arc)" stroke-width="64" stroke-linecap="round"/>
    <circle cx="714.3" cy="392.4" r="92" fill="url(#tip)" filter="url(#blur)"/>
    <circle cx="714.3" cy="392.4" r="30" fill="#fff6d6"/>

    <path d="M512 372 C 540 440, 618 478, 618 566 C 618 628, 570 676, 512 676 C 454 676, 406 628, 406 566 C 406 516, 438 488, 458 448 C 470 478, 486 490, 500 494 C 492 450, 500 410, 512 372 Z" fill="url(#flame)"/>
    <path d="M512 520 C 530 556, 564 574, 564 620 C 564 650, 542 672, 512 672 C 482 672, 460 650, 460 620 C 460 590, 482 572, 492 548 C 500 562, 506 566, 512 568 C 508 552, 508 536, 512 520 Z" fill="url(#core)"/>

    <rect x="100" y="100" width="824" height="420" fill="url(#sheen)"/>
  </g>
  <rect x="101" y="101" width="822" height="822" rx="189" fill="none" stroke="#ffffff" stroke-opacity="0.22" stroke-width="2"/>
</svg>
